<svg xmlns="http://www.w3.org/2000/svg" xmlns:xlink="http://www.w3.org/1999/xlink" width="1000" zoomAndPan="magnify" viewBox="0 0 750 749.999995" height="1000" preserveAspectRatio="xMidYMid meet" version="1.0"><defs><clipPath id="7b1c00bd25"><path d="M 167 254.738281 L 620 254.738281 L 620 495.488281 L 167 495.488281 Z M 167 254.738281 " clip-rule="nonzero"/></clipPath></defs><rect x="-75" width="900" fill="#ffffff" y="-74.999999" height="899.999994" fill-opacity="1"/><rect x="-75" width="900" fill="#000000" y="-74.999999" height="899.999994" fill-opacity="1"/><g clip-path="url(#7b1c00bd25)"><path fill="#ffffff" d="M 368.425781 388.679688 C 232.230469 388.679688 230.171875 388.335938 228.457031 388.335938 L 227.773438 388.335938 C 193.464844 385.589844 167.050781 356.398438 167.050781 321.710938 C 167.050781 284.617188 196.898438 254.738281 233.949219 254.738281 L 378.03125 254.738281 C 406.847656 254.738281 430.175781 278.09375 430.175781 307.285156 L 430.175781 335.105469 L 234.289062 335.105469 C 226.398438 334.761719 221.253906 328.921875 221.253906 321.710938 C 221.253906 314.496094 226.742188 308.660156 233.949219 308.316406 L 403.417969 308.316406 L 403.417969 307.628906 C 403.417969 292.859375 392.097656 281.527344 377.34375 281.527344 L 233.949219 281.527344 C 211.992188 281.527344 193.808594 299.386719 193.808594 321.710938 C 193.808594 342.316406 209.246094 358.800781 228.800781 361.550781 C 365.679688 361.550781 367.054688 361.890625 369.453125 361.890625 C 403.761719 364.640625 430.175781 394.175781 430.175781 428.519531 C 430.175781 465.613281 400.328125 495.492188 363.621094 495.492188 L 219.195312 495.492188 C 190.378906 495.492188 167.050781 472.136719 167.050781 443.289062 L 167.050781 415.125 L 363.621094 415.125 C 380.433594 416.15625 380.433594 440.882812 363.621094 441.914062 L 193.808594 441.914062 L 193.808594 442.601562 C 193.808594 457.367188 205.128906 468.703125 219.882812 468.703125 L 363.621094 468.703125 C 385.234375 468.703125 403.761719 451.53125 403.761719 428.519531 C 403.761719 407.914062 388.324219 391.429688 368.425781 388.679688 Z M 526.984375 254.738281 L 619.609375 254.738281 C 614.464844 263.324219 579.816406 323.769531 546.539062 381.8125 C 526.984375 415.8125 505.375 453.933594 481.015625 495.492188 L 450.140625 495.492188 C 452.886719 491.027344 483.417969 437.105469 513.605469 384.902344 C 531.101562 354.335938 551 319.648438 573.296875 281.527344 L 542.421875 281.527344 C 499.199219 355.710938 474.15625 400.015625 434.703125 468.703125 C 432.300781 464.582031 310.515625 255.082031 310.859375 254.738281 L 403.484375 254.738281 L 450.140625 335.105469 L 434.703125 361.890625 L 388.046875 281.527344 L 357.171875 281.527344 C 364.035156 292.519531 428.183594 404.480469 434.703125 415.125 L 501.941406 298.355469 Z M 526.984375 254.738281 " fill-opacity="1" fill-rule="nonzero"/></g></svg>