<svg xmlns="http://www.w3.org/2000/svg" xmlns:xlink="http://www.w3.org/1999/xlink" width="1000" zoomAndPan="magnify" viewBox="0 0 750 749.999995" height="1000" preserveAspectRatio="xMidYMid meet" version="1.0"><defs><clipPath id="470fde2556"><path d="M 157 254.738281 L 611 254.738281 L 611 495.488281 L 157 495.488281 Z M 157 254.738281 " clip-rule="nonzero"/></clipPath></defs><rect x="-75" width="900" fill="#ffffff" y="-74.999999" height="899.999994" fill-opacity="1"/><rect x="-75" width="900" fill="#ffffff" y="-74.999999" height="899.999994" fill-opacity="1"/><g clip-path="url(#470fde2556)"><path fill="#000000" d="M 359.085938 388.550781 C 222.871094 388.550781 220.8125 388.207031 219.097656 388.207031 L 218.414062 388.207031 C 184.101562 385.460938 157.683594 356.296875 157.683594 321.644531 C 157.683594 284.589844 187.53125 254.738281 224.589844 254.738281 L 368.691406 254.738281 C 397.511719 254.738281 420.84375 278.070312 420.84375 307.234375 L 420.84375 335.027344 L 224.929688 335.027344 C 217.039062 334.683594 211.894531 328.851562 211.894531 321.644531 C 211.894531 314.441406 217.382812 308.605469 224.589844 308.265625 L 394.082031 308.265625 L 394.082031 307.578125 C 394.082031 292.824219 382.761719 281.5 368.007812 281.5 L 224.589844 281.5 C 202.628906 281.5 184.445312 299.34375 184.445312 321.644531 C 184.445312 342.230469 199.882812 358.699219 219.441406 361.445312 C 356.339844 361.445312 357.714844 361.789062 360.113281 361.789062 C 394.425781 364.53125 420.84375 394.039062 420.84375 428.351562 C 420.84375 465.40625 390.996094 495.257812 354.28125 495.257812 L 209.835938 495.257812 C 181.015625 495.257812 157.683594 471.925781 157.683594 443.105469 L 157.683594 414.96875 L 354.28125 414.96875 C 371.09375 416 371.09375 440.703125 354.28125 441.730469 L 184.445312 441.730469 L 184.445312 442.417969 C 184.445312 457.171875 195.765625 468.492188 210.519531 468.492188 L 354.28125 468.492188 C 375.898438 468.492188 394.425781 451.339844 394.425781 428.351562 C 394.425781 407.765625 378.984375 391.296875 359.085938 388.550781 Z M 517.667969 254.738281 L 610.308594 254.738281 C 605.160156 263.316406 570.507812 323.703125 537.226562 381.6875 C 517.667969 415.65625 496.054688 453.742188 471.691406 495.257812 L 440.8125 495.257812 C 443.558594 490.796875 474.09375 436.929688 504.289062 384.777344 C 521.785156 354.238281 541.6875 319.585938 563.988281 281.5 L 533.109375 281.5 C 489.878906 355.613281 464.832031 399.871094 425.375 468.492188 C 422.972656 464.375 301.167969 255.082031 301.511719 254.738281 L 394.152344 254.738281 L 440.8125 335.027344 L 425.375 361.789062 L 378.710938 281.5 L 347.832031 281.5 C 354.695312 292.480469 418.855469 404.332031 425.375 414.96875 L 492.621094 298.3125 Z M 517.667969 254.738281 " fill-opacity="1" fill-rule="nonzero"/></g></svg>