<svg version="1.2" xmlns="http://www.w3.org/2000/svg" viewBox="0 0 648 156" width="165" height="40">
	<title>updated_logo</title>
	<style>
		.s0 { fill: #0ce9ee;stroke: #0ce9ee;stroke-width: 0 } 
		.s1 { fill: none;stroke: #0ce9ee;stroke-width: 6.6 } 
		.s2 { fill: #0ce9ee } 
		.s3 { fill: none;stroke: #0ce9ee;stroke-width: 5 } 
	</style>
	<path id="Shape 4" class="s0" d="m616 144l23-23v-97l-19-19 1-5 27 27v101l-27 28h-393l-11-12z"/>
	<g id="Button">
		<path id="Shape 3" class="s1" d="m199 24l20-20h401l20 20v97l-20 21h-401l-20-21z"/>
		<path id="Buttons" class="s2" aria-label="Buttons"  d="m282.6 105h-28.2l9-64.1h25.9q9.2 0 14.2 4.3 5.1 4.2 5.1 11.9 0 3.4-1 6.4-1 2.9-3.1 5.2-1.9 2.3-5 4.1l-1-4.9q5.8 2.6 7.9 6.5 2.2 3.9 2.2 8.2 0 7-3.2 12.1-3.1 5-8.9 7.6-5.9 2.7-13.9 2.7zm-10.9-28.4l-2.3 16.8h16q2.9 0 5-1.2 2.3-1.2 3.5-3.4 1.3-2.1 1.3-4.9 0-3.2-2.2-5.2-2.1-2.1-5.8-2.1zm3.4-24.5l-1.8 12.9h14.5q2.2 0 3.8-0.9 1.7-1 2.7-2.6 0.9-1.7 0.9-3.8 0-2.5-1.6-4-1.6-1.6-4.5-1.6zm55.7 53.9q-5.9 0-9.7-2.5-3.8-2.6-5.4-7.3-1.4-4.6-0.6-10.9l3.9-27.3h12.9l-3.8 27.5q-0.3 2.6 0.4 4.7 0.8 2 2.6 3.1 1.8 1.1 4.3 1.1 2.6 0 4.7-1.1 2-1.1 3.4-3.1 1.5-2.1 1.8-4.7l3.8-27.5h12.9l-6.5 47h-12.1l1.2-9.3 0.5 2.4q-2.1 4.2-5.9 6.1-3.8 1.8-8.4 1.8zm57.3-0.5q-8.7 0-12.9-4.7-4.3-4.8-3.1-13.1l2.5-18.5h-7.9l1.6-11.2h0.1q3.7 0 6-1.9 2.4-2 2.9-5.6l0.4-3.1h13.1l-1.5 10.6h10.8l-1.6 11.2h-10.8l-2.6 18.3q-0.3 2.5 0.2 4 0.5 1.5 2 2.1 1.5 0.7 4.1 0.7 0.8 0 1.5 0 0.7 0 1.9-0.2l-1 10.9q-1.3 0.3-2.9 0.4-1.6 0.1-2.8 0.1zm36.5 0q-8.7 0-12.9-4.7-4.2-4.8-3.1-13.1l2.6-18.5h-7.9l1.5-11.2h0.2q3.6 0 5.9-1.9 2.4-2 3-5.6l0.4-3.1h13.1l-1.6 10.6h10.8l-1.5 11.2h-10.8l-2.6 18.3q-0.4 2.5 0.1 4 0.6 1.5 2 2.1 1.6 0.7 4.2 0.7 0.7 0 1.4 0 0.8 0 1.9-0.2l-0.9 10.9q-1.3 0.3-3 0.4-1.5 0.1-2.8 0.1zm37.9 0.5q-6.7 0-12.1-2.9-5.4-3-8.6-8.2-3.2-5.3-3.2-12 0-5.4 2.1-10.1 2-4.8 5.7-8.3 3.7-3.5 8.6-5.5 4.8-2 10.3-2 6.7 0 12.1 3 5.4 2.9 8.5 8.2 3.2 5.2 3.2 11.9 0 5.5-2.1 10.2-2 4.6-5.7 8.3-3.7 3.5-8.5 5.5-4.9 1.9-10.3 1.9zm0.2-11.6q3.9 0 6.8-1.9 2.9-1.9 4.6-5.2 1.6-3.3 1.6-7.3 0-3.4-1.3-5.9-1.3-2.6-3.7-4-2.3-1.5-5.6-1.5-3.9 0-6.9 2-2.9 1.9-4.5 5.2-1.7 3.2-1.7 7.3 0 3.3 1.3 5.9 1.3 2.5 3.7 4 2.4 1.4 5.7 1.4zm43.7 10.6h-12.9l6.5-47h12.1l-1.2 9.3-0.6-2.4q2.3-4.2 6-6 3.8-1.9 8.5-1.9 5.4 0 9.2 2.6 3.8 2.5 5.5 6.8 1.8 4.3 1 9.6l-4 29h-12.9l3.8-27.4q0.6-4.1-1.5-6.5-2.1-2.5-5.8-2.5-2.5 0-4.7 1.1-2 1.2-3.4 3.1-1.4 2-1.8 4.8zm57.7 1q-5.1 0-9.4-1.7-4.2-1.7-7-4.8-2.9-3.1-3.8-7.3l9.7-3.9q1.4 3.7 4.2 5.7 2.8 2.1 6.6 2.1 3.2 0 4.8-1.3 1.6-1.3 1.6-3.1 0-1.9-1.4-2.6-1.4-0.9-2.6-1.2l-7.8-2.3q-5.2-1.4-8-4.8-2.7-3.4-2.7-8.2 0-4.5 2.4-8.1 2.5-3.5 6.8-5.5 4.3-2 9.7-2 7 0 11.9 3.3 5 3.4 6.6 9.2l-9.8 4q-0.6-2.8-3.3-4.5-2.7-1.7-5.9-1.7-2.6 0-4.3 1.1-1.7 1-1.7 3 0 1.9 1.5 2.8 1.4 0.8 3 1.3l7.2 2.2q5.4 1.6 8.1 4.9 2.8 3.3 2.8 7.8 0 4.4-2.5 7.9-2.4 3.6-6.7 5.6-4.3 2.1-10 2.1z"/>
	</g>
	<g id="2 Thief">
		<path id="Thief" class="s2" aria-label="S"  d="m50.4 144.4c35.4 0 58.2-17.1 58.2-43 0-37.3-58.9-27.8-58.8-44.4 0-6.6 7.6-11.8 21.8-11.8 11.9 0 23.7 3.1 33.2 9.2l12.4-25.4c-10.9-6.8-26.4-10.4-43.5-10.4-35.8 0-58.1 17.1-58.1 43.2 0 38 58.8 29 58.8 45.3 0 6.6-7.6 10.7-20.8 10.7-13.8 0-28-4.1-40.2-11.9l-13.5 25.6c10.9 7.4 29.7 12.9 50.5 12.9z"/>
		<path id="Shape 2" class="s2" d="m120.5 139.5l13.3-62.4 34.6-12-16 74.4z"/>
		<path id="i" class="s3" d="m137.5 67.2l4.3-21.5h26.9l-2.1 10.8z"/>
	</g>
</svg>